<svg width="84" height="29" viewBox="0 0 84 29" fill="none" xmlns="http://www.w3.org/2000/svg">
<path fill-rule="evenodd" clip-rule="evenodd" d="M0.293216 28.71C0.488693 28.9033 0.74002 29 1.0472 29H5.61298C5.92016 29 6.17149 28.9033 6.36696 28.71C6.56244 28.5167 6.66018 28.2681 6.66018 27.9643V17.2757H17.174C17.6367 17.2757 18.0118 17.6467 18.0118 18.1043V27.9643C18.0118 28.2681 18.1095 28.5167 18.305 28.71C18.5005 28.9033 18.7518 29 19.059 29H23.6248C23.932 29 24.1833 28.9033 24.3788 28.71C24.5742 28.5167 24.672 28.2681 24.672 27.9643L24.672 16.3643C24.672 13.6186 22.4215 11.3929 19.6454 11.3929H17.0605H16.6282H6.66018V1.03572C6.66018 0.731905 6.56244 0.483334 6.36696 0.290001C6.17149 0.0966671 5.92016 0 5.61298 0H1.0472C0.74002 0 0.488693 0.0966671 0.293216 0.290001C0.0977386 0.483334 0 0.731905 0 1.03572V27.9643C0 28.2681 0.0977386 28.5167 0.293216 28.71ZM20.7764 8.28571C23.2897 8.28571 24.672 10.3571 24.672 10.3571L24.672 1.03572C24.672 0.731905 24.5742 0.483334 24.3788 0.290001C24.1833 0.0966671 23.932 0 23.6248 0H19.059C18.7518 0 18.5005 0.0966671 18.305 0.290001C18.1095 0.483334 18.0118 0.731905 18.0118 1.03572V5.8C18.0118 7.63043 18.2631 8.28571 20.7764 8.28571ZM52.5072 28.7141C52.7171 28.9047 52.987 29 53.3169 29H57.8149C58.1148 29 58.3696 28.9047 58.5796 28.7141C58.7895 28.5235 58.8944 28.2784 58.8944 27.9789V1.02113C58.8944 0.721596 58.7895 0.476526 58.5796 0.285917C58.3696 0.0953056 58.1148 0 57.8149 0H53.3169C52.987 0 52.7171 0.0953056 52.5072 0.285917C52.2973 0.476526 52.1924 0.721596 52.1924 1.02113V27.9789C52.1924 28.2784 52.2973 28.5235 52.5072 28.7141ZM67.3705 27.8814C68.9343 28.6271 70.8751 29 73.1929 29C75.4828 29 77.4096 28.6271 78.9734 27.8814C80.5373 27.1081 81.7241 26.0171 82.5339 24.6086C83.3717 23.2 83.8325 21.5567 83.9162 19.6786C83.9721 19.1262 84 18.5048 84 17.8143C84 17.0962 83.9721 16.4748 83.9162 15.95C83.8325 14.0443 83.3577 12.401 82.492 11.02C81.6264 9.61143 80.4116 8.53429 78.8478 7.78857C77.284 7.01524 75.399 6.62857 73.1929 6.62857C70.9589 6.62857 69.06 7.01524 67.4962 7.78857C65.9323 8.53429 64.7176 9.61143 63.8519 11.02C62.9862 12.401 62.5115 14.0443 62.4277 15.95C62.3998 16.4748 62.3858 17.0962 62.3858 17.8143C62.3858 18.5048 62.3998 19.1262 62.4277 19.6786C62.5115 21.5567 62.9583 23.2 63.7681 24.6086C64.6059 26.0171 65.8067 27.1081 67.3705 27.8814ZM76.2926 23.2C75.5945 24.0286 74.5613 24.4429 73.1929 24.4429C71.8246 24.4429 70.7774 24.0286 70.0513 23.2C69.3532 22.3438 68.9762 21.101 68.9204 19.4714C68.8924 19.0571 68.8785 18.5048 68.8785 17.8143C68.8785 17.1238 68.8924 16.5714 68.9204 16.1571C68.9762 14.5552 69.3532 13.3262 70.0513 12.47C70.7774 11.6138 71.8246 11.1857 73.1929 11.1857C74.5613 11.1857 75.5945 11.6138 76.2926 12.47C76.9908 13.3262 77.3678 14.5552 77.4236 16.1571C77.4515 16.5714 77.4655 17.1238 77.4655 17.8143C77.4655 18.5048 77.4515 19.0571 77.4236 19.4714C77.3678 21.101 76.9908 22.3438 76.2926 23.2ZM38.5788 29C35.3674 29 32.8122 28.1162 30.9133 26.3486C29.0423 24.581 28.051 22.0124 27.9392 18.6429V17.7729V16.8614C28.051 14.7348 28.5396 12.9119 29.4053 11.3929C30.271 9.84619 31.4858 8.67238 33.0496 7.87143C34.6134 7.04286 36.4425 6.62857 38.5369 6.62857C40.8826 6.62857 42.8374 7.11191 44.4012 8.07857C45.9929 9.01762 47.1798 10.3157 47.9617 11.9729C48.7715 13.6024 49.1764 15.4805 49.1764 17.6071V18.56C49.1764 18.8362 49.0647 19.071 48.8413 19.2643C48.6458 19.4576 48.4085 19.5543 48.1292 19.5543H34.4319V19.72V19.8857C34.4598 20.7695 34.6274 21.5843 34.9345 22.33C35.2696 23.0481 35.7304 23.6281 36.3168 24.07C36.9312 24.5119 37.6572 24.7329 38.495 24.7329C39.1931 24.7329 39.7656 24.6362 40.2124 24.4429C40.6592 24.2495 41.0222 24.0148 41.3015 23.7386C41.6087 23.4624 41.8321 23.2276 41.9717 23.0343C42.223 22.7581 42.4185 22.5924 42.5581 22.5371C42.7257 22.4543 42.977 22.4129 43.3121 22.4129H47.6685C47.9477 22.4129 48.1711 22.4957 48.3387 22.6614C48.5341 22.7995 48.6179 23.0067 48.59 23.2829C48.5621 23.7248 48.3247 24.2771 47.8779 24.94C47.459 25.5752 46.8307 26.2105 45.9929 26.8457C45.1552 27.4533 44.108 27.9643 42.8514 28.3786C41.6226 28.7929 40.1984 29 38.5788 29ZM42.6419 15.7843V15.7014C42.6419 14.7071 42.4744 13.851 42.1393 13.1329C41.8321 12.3871 41.3713 11.8071 40.757 11.3929C40.1426 10.9786 39.4026 10.7714 38.5369 10.7714C37.6712 10.7714 36.9312 10.9786 36.3168 11.3929C35.7025 11.8071 35.2277 12.3871 34.8926 13.1329C34.5855 13.851 34.4319 14.7071 34.4319 15.7014V15.7843H42.6419Z" fill="#1C1D20"/>
</svg>
