<svg width="21" height="24" viewBox="0 0 21 24" fill="none" xmlns="http://www.w3.org/2000/svg">
<path fill-rule="evenodd" clip-rule="evenodd" d="M1.04103 22.9974C1.19761 23.1523 1.39893 23.2297 1.64498 23.2297H5.30229C5.54835 23.2297 5.74967 23.1523 5.90625 22.9974C6.06283 22.8426 6.14112 22.6435 6.14112 22.4001V13.8383H14.563C14.9336 13.8383 15.2341 14.1354 15.2341 14.502V22.4001C15.2341 22.6435 15.3124 22.8426 15.4689 22.9974C15.6255 23.1523 15.8268 23.2297 16.0729 23.2297H19.7302C19.9763 23.2297 20.1776 23.1523 20.3342 22.9974C20.4907 22.8426 20.569 22.6435 20.569 22.4001L20.569 13.1082C20.569 10.9089 18.7664 9.12597 16.5426 9.12597H14.4721H14.1257H6.14112V0.829634C6.14112 0.586274 6.06283 0.387162 5.90625 0.232298C5.74967 0.0774327 5.54835 0 5.30229 0H1.64498C1.39893 0 1.19761 0.0774327 1.04103 0.232298C0.884443 0.387162 0.806152 0.586274 0.806152 0.829634V22.4001C0.806152 22.6435 0.884443 22.8426 1.04103 22.9974ZM17.4486 6.63707C19.4618 6.63707 20.569 8.29633 20.569 8.29633V0.829634C20.569 0.586274 20.4907 0.387162 20.3342 0.232298C20.1776 0.0774328 19.9763 0 19.7302 0H16.0729C15.8268 0 15.6255 0.0774328 15.4689 0.232298C15.3124 0.387162 15.2341 0.586274 15.2341 0.829634V4.64595C15.2341 6.11216 15.4354 6.63707 17.4486 6.63707Z" fill="white"/>
</svg>
